<?xml version="1.0" encoding="utf-8"?>
<!-- Generator: Adobe Illustrator 16.2.1, SVG Export Plug-In . SVG Version: 6.00 Build 0)  -->
<!DOCTYPE svg PUBLIC "-//W3C//DTD SVG 1.1//EN" "http://www.w3.org/Graphics/SVG/1.1/DTD/svg11.dtd">
<svg version="1.1" id="Layer_1" xmlns="http://www.w3.org/2000/svg" xmlns:xlink="http://www.w3.org/1999/xlink" x="0px" y="0px"
	 width="283.194px" height="284.747px" viewBox="0 0 283.194 284.747" enable-background="new 0 0 283.194 284.747"
	 xml:space="preserve">
<path fill="#FFFFFF" d="M278.426,133.302c-4.082-4.094-21.873-21.981-25.198-24.827c-0.136-0.115-3.555-1.873-5.431-1.958
	c-5.517-0.251-14.798-0.14-15.335-0.133c-1.074,0.014-2.411,0.766-2.412,3.004l-0.257,17.727c0,2.237-1.351,4.065-3.002,4.064
	l-19.455-0.004c-1.65-0.001-3,1.827-3.001,4.062l-0.005,17.384c-0.001,2.235-1.351,4.065-3,4.064l-19.457-0.006
	c-1.649,0.001-3,1.826-3.001,4.064l-0.004,17.383c0,2.235-1.351,4.064-3,4.063l-19.456-0.005c-1.651-0.001-3.002,1.827-3.003,4.062
	l-1.347,19.408c0,2.237-1.557,1.886-3.207,1.885c0,0-11.541-11.584-12.865-12.914l-20.321-20.379l-0.006,0.003l-1.385-1.396
	L77.19,135.667c-0.267-0.27-0.451-0.521-0.591-0.763l-39.791-40.08c-0.17,0.172-0.32,0.322-0.429,0.432
	c0,0-25.237,25.218-31.603,31.595c-6.366,6.376-6.37,19.132-0.007,25.51c6.36,6.382,35.761,35.861,35.761,35.861
	c1.326,1.331,3.496,3.507,4.824,4.839l46.075,46.202c1.326,1.33,3.496,3.506,4.822,4.836c0,0,29.399,29.481,35.762,35.861
	c6.361,6.38,19.09,6.385,25.455,0.006c6.365-6.376,35.78-35.842,35.78-35.842c1.328-1.327,3.498-3.503,4.826-4.833
	c0,0,73.977-74.099,80.343-80.476C284.783,152.436,284.787,139.682,278.426,133.302z"/>
<g>
	<path fill="#FFFFFF" d="M82.487,132.33l15.778,0.004c1.65,0.001,3.001-1.825,3.002-4.062l0.004-17.386
		c0-2.234,1.352-4.063,3.002-4.062l19.455,0.005c1.65,0,3.001-1.829,3.001-4.064l0.004-17.382c0.001-2.236,1.351-4.065,3.002-4.065
		l19.455,0.006c1.65,0.001,3.001-1.827,3.001-4.064l0.006-17.383c0.001-2.236,1.351-4.064,3.002-4.063l19.454,0.005
		c1.65,0.001,3.001-1.827,3.001-4.063l0.004-17.382c0.002-2.236-1.082-5.153-2.409-6.482c0,0-16.675-16.722-23.036-23.104
		c-6.363-6.379-19.091-6.382-25.457-0.005S46.414,85.257,46.414,85.257c-1.218,1.222-3.589,3.556-5.498,5.477"/>
</g>
</svg>
