<?xml version="1.0" encoding="utf-8"?>
<!-- Generator: Adobe Illustrator 18.1.1, SVG Export Plug-In . SVG Version: 6.00 Build 0)  -->
<svg version="1.1" id="Layer_1" xmlns="http://www.w3.org/2000/svg" xmlns:xlink="http://www.w3.org/1999/xlink" x="0px" y="0px"
	 viewBox="-163 254.3 283.2 284.7" enable-background="new -163 254.3 283.2 284.7" xml:space="preserve">
<path d="M115.4,387.6c-4.1-4.1-21.9-22-25.2-24.8c-0.1-0.1-3.6-1.9-5.4-2c-5.5-0.3-14.8-0.1-15.3-0.1c-1.1,0-2.4,0.8-2.4,3
	l-0.3,17.7c0,2.2-1.4,4.1-3,4.1l-19.5,0c-1.6,0-3,1.8-3,4.1l0,17.4c0,2.2-1.4,4.1-3,4.1l-19.5,0c-1.6,0-3,1.8-3,4.1l0,17.4
	c0,2.2-1.4,4.1-3,4.1l-19.5,0c-1.7,0-3,1.8-3,4.1l-1.3,19.4c0,2.2-1.6,1.9-3.2,1.9c0,0-11.5-11.6-12.9-12.9l-20.3-20.4l0,0l-1.4-1.4
	l-37.1-37.2c-0.3-0.3-0.5-0.5-0.6-0.8l-39.8-40.1c-0.2,0.2-0.3,0.3-0.4,0.4c0,0-25.2,25.2-31.6,31.6c-6.4,6.4-6.4,19.1,0,25.5
	c6.4,6.4,35.8,35.9,35.8,35.9c1.3,1.3,3.5,3.5,4.8,4.8l46.1,46.2c1.3,1.3,3.5,3.5,4.8,4.8c0,0,29.4,29.5,35.8,35.9
	c6.4,6.4,19.1,6.4,25.5,0c6.4-6.4,35.8-35.8,35.8-35.8c1.3-1.3,3.5-3.5,4.8-4.8c0,0,74-74.1,80.3-80.5
	C121.8,406.7,121.8,393.9,115.4,387.6z"/>
<g>
	<path d="M-118.4,341.3"/>
	<path d="M-116.6,339.5"/>
	<path d="M-112.9,335.8"/>
	<path d="M-62.4,385.1c0.4-0.7,0.7-1.6,0.7-2.6l0-17.4c0-2.2,1.4-4.1,3-4.1l19.5,0c1.7,0,3-1.8,3-4.1l0-17.4c0-2.2,1.4-4.1,3-4.1
		l19.5,0c1.6,0,3-1.8,3-4.1l0-17.4c0-2.2,1.4-4.1,3-4.1l19.5,0c1.6,0,3-1.8,3-4.1l0-17.4c0-2.2-1.1-5.2-2.4-6.5
		c0,0-16.7-16.7-23-23.1c-6.4-6.4-19.1-6.4-25.5,0c-5.5,5.5-61.5,61.6-76.6,76.7"/>
	<path d="M-62.4,385.1"/>
</g>
</svg>
